<?xml version="1.0" standalone="no"?>
<!DOCTYPE svg PUBLIC "-//W3C//DTD SVG 20010904//EN"
 "http://www.w3.org/TR/2001/REC-SVG-20010904/DTD/svg10.dtd">
<svg version="1.0" xmlns="http://www.w3.org/2000/svg"
 width="256.000000pt" height="256.000000pt" viewBox="0 0 256.000000 256.000000"
 preserveAspectRatio="xMidYMid meet">

<g transform="translate(0.000000,256.000000) scale(0.100000,-0.100000)"
fill="#000000" stroke="none">
<path d="M384 2166 c-8 -21 883 -1796 901 -1796 18 0 909 1775 901 1796 -3 8
-12 14 -21 14 -10 0 -129 -229 -361 -692 l-347 -693 -343 693 c-334 674 -362
725 -380 679 -2 -7 153 -332 345 -721 l350 -707 -72 -145 -72 -144 -433 865
c-291 582 -437 865 -447 865 -9 0 -18 -6 -21 -14z"/>
</g>
</svg>
